<svg xmlns="http://www.w3.org/2000/svg" width="32" height="32" viewBox="0 0 187.68 187.68"><path fill="#455c3d" d="M170.04,128.75c-16.09,32.6-45.52,51.18-76.14,58.93-31.97-6.04-62.29-24.18-78.56-58.03,22.98,7.77,48.33-.38,54.78-27.91,2.8-14.19,1.23-29.1-5.77-41.35-2.59-4.53-6.71-8.56-11.65-8.36-10.3.42-19.66,8.85-22.54,19.98s6.77,22.89,3.74,30.59c-3.49,8.86-20.46,6.35-27.42,4.62C.95,90.39-.89,72.91.39,55.08c.97-13.55,4.92-26.33,12.63-36.79C31.51-6.79,65.97-2.04,90.09,8.69c1.47.66,3.56,1.78,5.1.89C110.5.72,127.41-1.89,144.32,1.79c11.35,2.47,21.8,7.67,29.57,17.33,19.5,24.22,15.5,61.21,5.26,88.87-7.58.95-27.08,3.71-25.17-10.42,1.38-10.22,10.32-23.07-.82-35.89-4.79-5.51-11-10.03-18.09-9.65-5.02.26-9.09,4.61-11.54,9.51-6.17,12.32-7.55,26.94-4.86,40.72,5.23,26.78,30.52,31.56,51.37,26.49Z"/></svg>





